<?xml version="1.0" encoding="UTF-8" standalone="no"?>
<!-- Created with Inkscape (https://www.inkscape.org/) -->
<svg id="svg3336" xmlns:rdf="https://www.w3.org/1999/02/22-rdf-syntax-ns#" xmlns="https://www.w3.org/2000/svg" height="65.245" viewBox="0 0 420 200" width="137.51" version="1.1" xmlns:cc="https://creativecommons.org/ns#" xmlns:xlink="https://www.w3.org/1999/xlink" xmlns:dc="https://purl.org/dc/elements/1.1/">
 <metadata id="metadata3342">
  <rdf:RDF>
   <cc:Work rdf:about="">
    <dc:format>image/svg+xml</dc:format>
    <dc:type rdf:resource="https://purl.org/dc/dcmitype/StillImage"/>
    <dc:title/>
   </cc:Work>
  </rdf:RDF>
 </metadata>
 <path id="path7360" opacity="0" d="m12.374 65.451-12.815-0.043-0.10975-19.696c-0.06039-10.833-0.10984-24.504-0.10988-30.38l-0.00008-10.683 0.94977-0.1156c1.2578-0.1528 3.5038-0.8062 4.4692-1.3002 0.4263-0.2181 1.4755-0.9234 2.3316-1.5672 0.8561-0.6437 1.6824-1.1705 1.8363-1.1705 0.15385 0 0.79135 0.40912 1.4167 0.90916 3.7244 2.9783 8.8722 3.8423 13.295 2.2315 1.4986-0.54575 2.6987-1.289 3.9889-2.4704 1.1547-1.0573 1.2589-1.0458 2.8482 0.31614 1.2848 1.101 3.2804 2.177 4.7901 2.5828 1.5574 0.41857 4.5834 0.49206 6.1382 0.14909 2.3203-0.51184 4.0313-1.3898 5.9041-3.0294 0.5365-0.46971 1.094-0.85392 1.2388-0.85379 0.14485 0.0001252 0.88388 0.51518 1.6423 1.1446 1.6301 1.3528 3.2529 2.1954 5.1544 2.6762 1.1756 0.29727 1.6936 0.33647 3.4538 0.26134 3.1588-0.13483 5.4991-0.97298 7.9033-2.8306 1.7566-1.3572 1.7076-1.3441 2.5382-0.67744 2.0241 1.6246 3.3037 2.369 5.1534 2.9981 4.249 1.4452 8.8329 0.46556 12.6-2.6928 0.46872-0.39297 0.98903-0.71435 1.1562-0.71419 0.1672 0.00016248 0.89864 0.44942 1.6254 0.99836 2.5819 1.9501 4.8979 2.7942 8.0172 2.922 1.7519 0.07178 2.2861 0.030921 3.4687-0.26533 1.6565-0.41496 3.3932-1.2424 4.5362-2.1611 1.6357-1.3148 2.1176-1.6594 2.3204-1.6594 0.11336 0 0.78976 0.48748 1.5031 1.0833 1.5718 1.3128 3.8234 2.4645 5.509 2.8179 1.7453 0.36587 4.9452 0.23445 6.5245-0.26796 1.66-0.52807 3.1012-1.2957 4.7739-2.5428 0.80442-0.59973 1.5214-1.0904 1.5932-1.0904s0.56113 0.36735 1.0873 0.81634c1.7354 1.4809 5.1575 3.1803 6.8747 3.414l0.78459 0.10679v25.719c0 14.146 0.0491 27.85 0.10918 30.454l0.10918 4.7344-55.898-0.04027c-30.728-0.022-61.648-0.06-68.697-0.084z"/>
 <path id="path7380" opacity="0" d="m12.374 65.451-12.815-0.043-0.10975-19.696c-0.06039-10.833-0.10984-24.504-0.10988-30.38l-0.00008-10.683 0.94977-0.1156c1.2578-0.1528 3.5038-0.8062 4.4692-1.3002 0.4263-0.2181 1.4755-0.9234 2.3316-1.5672 0.8561-0.6437 1.6824-1.1705 1.8363-1.1705 0.15385 0 0.79135 0.40912 1.4167 0.90916 3.7244 2.9783 8.8722 3.8423 13.295 2.2315 1.4986-0.54575 2.6987-1.289 3.9889-2.4704 1.1547-1.0573 1.2589-1.0458 2.8482 0.31614 1.2848 1.101 3.2804 2.177 4.7901 2.5828 1.5574 0.41857 4.5834 0.49206 6.1382 0.14909 2.3203-0.51184 4.0313-1.3898 5.9041-3.0294 0.5365-0.46971 1.094-0.85392 1.2388-0.85379 0.14485 0.0001252 0.88388 0.51518 1.6423 1.1446 1.6301 1.3528 3.2529 2.1954 5.1544 2.6762 1.1756 0.29727 1.6936 0.33647 3.4538 0.26134 3.1588-0.13483 5.4991-0.97298 7.9033-2.8306 1.7566-1.3572 1.7076-1.3441 2.5382-0.67744 2.0241 1.6246 3.3037 2.369 5.1534 2.9981 4.249 1.4452 8.8329 0.46556 12.6-2.6928 0.46872-0.39297 0.98903-0.71435 1.1562-0.71419 0.1672 0.00016248 0.89864 0.44942 1.6254 0.99836 2.5819 1.9501 4.8979 2.7942 8.0172 2.922 1.7519 0.07178 2.2861 0.030921 3.4687-0.26533 1.6565-0.41496 3.3932-1.2424 4.5362-2.1611 1.6357-1.3148 2.1176-1.6594 2.3204-1.6594 0.11336 0 0.78976 0.48748 1.5031 1.0833 1.5718 1.3128 3.8234 2.4645 5.509 2.8179 1.7453 0.36587 4.9452 0.23445 6.5245-0.26796 1.66-0.52807 3.1012-1.2957 4.7739-2.5428 0.80442-0.59973 1.5214-1.0904 1.5932-1.0904s0.56113 0.36735 1.0873 0.81634c1.7354 1.4809 5.1575 3.1803 6.8747 3.414l0.78459 0.10679v25.719c0 14.146 0.0491 27.85 0.10918 30.454l0.10918 4.7344-55.898-0.04027c-30.728-0.022-61.648-0.06-68.697-0.084z"/>
 <path id="path7382" d="m13.035 65.121-12.815-0.043-0.11004-19.697c-0.060394-10.833-0.10984-24.504-0.10988-30.379l-0.00008-10.684 0.94977-0.115c1.2578-0.1527 3.5038-0.8061 4.4692-1.3002 0.4263-0.2181 1.4756-0.9233 2.3316-1.5671 0.8561-0.64379 1.6824-1.1705 1.8363-1.1705 0.15385 0 0.79135 0.40912 1.4167 0.90916 3.7244 2.9783 8.8722 3.8423 13.295 2.2315 1.4986-0.54575 2.6987-1.289 3.9889-2.4704 1.1547-1.0573 1.2589-1.0458 2.8482 0.31614 1.2848 1.101 3.2804 2.177 4.7901 2.5828 1.5574 0.41857 4.5834 0.49206 6.1382 0.14909 2.32-0.5119 4.031-1.3898 5.904-3.0295 0.537-0.46969 1.094-0.8539 1.239-0.85377 0.14485 0.0001252 0.88388 0.51518 1.6423 1.1446 1.6301 1.3528 3.2529 2.1954 5.1544 2.6762 1.1756 0.29727 1.6936 0.33647 3.4538 0.26134 3.159-0.1348 5.5-0.9729 7.904-2.8305 1.756-1.3573 1.707-1.3442 2.538-0.67747 2.024 1.6246 3.304 2.369 5.153 2.9982 4.249 1.4451 8.833 0.4655 12.601-2.6928 0.468-0.393 0.989-0.71439 1.156-0.71423 0.1672 0.0001625 0.89864 0.44942 1.6254 0.99836 2.5819 1.9501 4.8979 2.7942 8.0172 2.922 1.7519 0.07178 2.2861 0.030921 3.4687-0.26533 1.6565-0.41496 3.3932-1.2424 4.5362-2.1611 1.63-1.3149 2.11-1.6595 2.32-1.6595 0.11336 0 0.78976 0.48748 1.5031 1.0833 1.5718 1.3128 3.8234 2.4645 5.509 2.8179 1.7453 0.36587 4.9452 0.23445 6.5245-0.26796 1.66-0.52807 3.1012-1.2957 4.7739-2.5428 0.8-0.59971 1.52-1.0904 1.59-1.0904 0.0718 0 0.56113 0.36735 1.0873 0.81634 1.7354 1.4809 5.1575 3.1803 6.8747 3.414l0.78459 0.10679v25.719c0 14.146 0.0491 27.85 0.10918 30.454l0.10918 4.7344-55.898-0.04027c-30.744-0.02215-61.664-0.05976-68.713-0.08359z" fill="#0080a9"/>
</svg>
