<?xml version="1.0" encoding="UTF-8" standalone="no"?>
<!-- Created with Inkscape (http://www.inkscape.org/) -->

<svg
   xmlns:dc="http://purl.org/dc/elements/1.1/"
   xmlns:cc="http://creativecommons.org/ns#"
   xmlns:rdf="http://www.w3.org/1999/02/22-rdf-syntax-ns#"
   xmlns:svg="http://www.w3.org/2000/svg"
   xmlns="http://www.w3.org/2000/svg"
   xmlns:xlink="http://www.w3.org/1999/xlink"
   xmlns:sodipodi="http://sodipodi.sourceforge.net/DTD/sodipodi-0.dtd"
   xmlns:inkscape="http://www.inkscape.org/namespaces/inkscape"
   id="svg3336"
   version="1.1"
   inkscape:version="0.91 r13725"
   width="411"
   height="200"
   viewBox="0 0 411.00007 200"
   sodipodi:docname="sea4.svg">
  <metadata
     id="metadata3342">
    <rdf:RDF>
      <cc:Work
         rdf:about="">
        <dc:format>image/svg+xml</dc:format>
        <dc:type
           rdf:resource="http://purl.org/dc/dcmitype/StillImage" />
        <dc:title></dc:title>
      </cc:Work>
    </rdf:RDF>
  </metadata>
  <defs
     id="defs3340">
    <linearGradient
       inkscape:collect="always"
       id="linearGradient7905">
      <stop
         style="stop-color:#0498c0;stop-opacity:1"
         offset="0"
         id="stop7907" />
      <stop
         style="stop-color:#02b3d2;stop-opacity:0"
         offset="1"
         id="stop7909" />
    </linearGradient>
    <linearGradient
       inkscape:collect="always"
       id="linearGradient7362">
      <stop
         style="stop-color:#37deb9;stop-opacity:1;"
         offset="0"
         id="stop7364" />
      <stop
         style="stop-color:#37deb9;stop-opacity:0;"
         offset="1"
         id="stop7366" />
    </linearGradient>
    <linearGradient
       inkscape:collect="always"
       xlink:href="#linearGradient7362"
       id="linearGradient7378"
       x1="0.086992003"
       y1="33.449059"
       x2="138.744"
       y2="33.449059"
       gradientUnits="userSpaceOnUse"
       gradientTransform="translate(-1.2477018,134.2591)" />
    <linearGradient
       inkscape:collect="always"
       xlink:href="#linearGradient7905"
       id="linearGradient7911"
       x1="211.16997"
       y1="-42.938904"
       x2="211.16997"
       y2="280.35675"
       gradientUnits="userSpaceOnUse" />
  </defs>
  <sodipodi:namedview
     pagecolor="#ffffff"
     bordercolor="#666666"
     borderopacity="1"
     objecttolerance="10"
     gridtolerance="10"
     guidetolerance="10"
     inkscape:pageopacity="0"
     inkscape:pageshadow="2"
     inkscape:window-width="1366"
     inkscape:window-height="705"
     id="namedview3338"
     showgrid="false"
     fit-margin-top="0"
     fit-margin-left="0"
     fit-margin-right="0"
     fit-margin-bottom="0"
     inkscape:zoom="1.070228"
     inkscape:cx="214.65122"
     inkscape:cy="72.90058"
     inkscape:window-x="-8"
     inkscape:window-y="-8"
     inkscape:window-maximized="1"
     inkscape:current-layer="svg3336" />
  <path
     style="opacity:0;fill:#008080;fill-opacity:1;stroke:url(#linearGradient7378)"
     d="M 12.37425,200.20651 -0.44094131,200.16321 -0.55074755,180.4669 C -0.611141,169.6339 -0.6605882,155.96307 -0.66063022,150.08726 l -7.641e-5,-10.68331 0.94976583,-0.11534 c 1.2577914,-0.15275 3.5038787,-0.80617 4.4692618,-1.30018 0.4263034,-0.21814 1.4755277,-0.92336 2.3316095,-1.56715 0.8560819,-0.64378 1.6823927,-1.17052 1.8362457,-1.17052 0.153854,0 0.791354,0.40913 1.4166678,0.90916 3.724425,2.97826 8.872202,3.8423 13.29519,2.23154 1.498575,-0.54575 2.698709,-1.28901 3.988906,-2.4704 1.154727,-1.05734 1.258899,-1.04578 2.848154,0.31614 1.284807,1.10103 3.280381,2.17701 4.790123,2.58277 1.557398,0.41856 4.583443,0.49206 6.138195,0.14909 2.320266,-0.51185 4.031262,-1.38977 5.904108,-3.02945 0.536505,-0.46971 1.093976,-0.85392 1.238825,-0.85379 0.144848,1.2e-4 0.883875,0.51518 1.642282,1.14456 1.630065,1.35276 3.252943,2.19538 5.154357,2.67621 1.175556,0.29727 1.693555,0.33646 3.453795,0.26133 3.158843,-0.13482 5.499056,-0.97297 7.903272,-2.83057 1.756636,-1.35725 1.707557,-1.34415 2.538242,-0.67744 2.024118,1.62457 3.303725,2.36901 5.153398,2.99813 4.249036,1.44519 8.832939,0.46556 12.600166,-2.69279 0.468725,-0.39297 0.989032,-0.71435 1.156237,-0.71419 0.167205,1.6e-4 0.898645,0.44942 1.625422,0.99836 2.581945,1.95014 4.897891,2.79424 8.017182,2.92205 1.75193,0.0718 2.286082,0.0309 3.468712,-0.26534 1.6565,-0.41496 3.39325,-1.24236 4.53624,-2.1611 1.63573,-1.3148 2.11764,-1.65944 2.3204,-1.65944 0.11336,0 0.78976,0.48748 1.5031,1.08329 1.57181,1.31283 3.82338,2.46453 5.50899,2.81788 1.74532,0.36586 4.94518,0.23444 6.52447,-0.26797 1.65996,-0.52807 3.10121,-1.29575 4.77388,-2.54279 0.80442,-0.59973 1.52137,-1.09041 1.59322,-1.09041 0.0718,0 0.56113,0.36735 1.08728,0.81633 1.73541,1.48089 5.15748,3.18032 6.8747,3.41404 l 0.78459,0.10678 0,25.71941 c 0,14.14567 0.0491,27.84989 0.10918,30.45381 l 0.10918,4.73441 -55.897602,-0.0403 c -30.743679,-0.0221 -61.664433,-0.0598 -68.712788,-0.0836 z"
     id="path7360"
     inkscape:connector-curvature="0" />
  <path
     style="opacity:0;fill:#008080;fill-opacity:1"
     d="M 12.37425,200.20651 -0.44094131,200.16321 -0.55074755,180.4669 C -0.611141,169.6339 -0.6605882,155.96307 -0.66063022,150.08726 l -7.641e-5,-10.68331 0.94976583,-0.11534 c 1.2577914,-0.15275 3.5038787,-0.80617 4.4692618,-1.30018 0.4263034,-0.21814 1.4755277,-0.92336 2.3316095,-1.56715 0.8560819,-0.64378 1.6823927,-1.17052 1.8362457,-1.17052 0.153854,0 0.791354,0.40913 1.4166678,0.90916 3.724425,2.97826 8.872202,3.8423 13.29519,2.23154 1.498575,-0.54575 2.698709,-1.28901 3.988906,-2.4704 1.154727,-1.05734 1.258899,-1.04578 2.848154,0.31614 1.284807,1.10103 3.280381,2.17701 4.790123,2.58277 1.557398,0.41856 4.583443,0.49206 6.138195,0.14909 2.320266,-0.51185 4.031262,-1.38977 5.904108,-3.02945 0.536505,-0.46971 1.093976,-0.85392 1.238825,-0.85379 0.144848,1.2e-4 0.883875,0.51518 1.642282,1.14456 1.630065,1.35276 3.252943,2.19538 5.154357,2.67621 1.175556,0.29727 1.693555,0.33646 3.453795,0.26133 3.158843,-0.13482 5.499056,-0.97297 7.903272,-2.83057 1.756636,-1.35725 1.707557,-1.34415 2.538242,-0.67744 2.024118,1.62457 3.303725,2.36901 5.153398,2.99813 4.249036,1.44519 8.832939,0.46556 12.600166,-2.69279 0.468725,-0.39297 0.989032,-0.71435 1.156237,-0.71419 0.167205,1.6e-4 0.898645,0.44942 1.625422,0.99836 2.581945,1.95014 4.897891,2.79424 8.017182,2.92205 1.75193,0.0718 2.286082,0.0309 3.468712,-0.26534 1.6565,-0.41496 3.39325,-1.24236 4.53624,-2.1611 1.63573,-1.3148 2.11764,-1.65944 2.3204,-1.65944 0.11336,0 0.78976,0.48748 1.5031,1.08329 1.57181,1.31283 3.82338,2.46453 5.50899,2.81788 1.74532,0.36586 4.94518,0.23444 6.52447,-0.26797 1.65996,-0.52807 3.10121,-1.29575 4.77388,-2.54279 0.80442,-0.59973 1.52137,-1.09041 1.59322,-1.09041 0.0718,0 0.56113,0.36735 1.08728,0.81633 1.73541,1.48089 5.15748,3.18032 6.8747,3.41404 l 0.78459,0.10678 0,25.71941 c 0,14.14567 0.0491,27.84989 0.10918,30.45381 l 0.10918,4.73441 -55.897602,-0.0403 c -30.743679,-0.0221 -61.664433,-0.0598 -68.712788,-0.0836 z"
     id="path7380"
     inkscape:connector-curvature="0" />
  <path
     style="opacity:1;fill:url(#linearGradient7911);fill-opacity:1"
     d="m 38.92784,202.65705 -42.9355544,-2.93593 -0.3318628,-61.31105 c -0.1797431,-33.20721 0.9617885,-74.179502 0.8358815,-92.190679 l -0.233826,-33.449153 6.6079608,0.113629 C 6.6999738,12.949719 13.46007,10.41265 16.377707,8.8983214 17.666109,8.2296088 20.837136,6.067842 23.424439,4.094412 26.01174,2.1209514 28.509066,0.50632411 28.97405,0.50632411 c 0.464986,0 2.391685,1.25410799 4.281538,2.78692039 11.256185,9.1294975 26.814095,11.7780775 40.181522,6.8405175 4.529073,-1.6729316 8.156193,-3.9513055 12.055499,-7.5727141 3.489886,-3.24114824 3.804727,-3.20571245 8.607872,0.9690891 3.883017,3.375044 9.914169,6.673362 14.476979,7.91714 4.70688,1.283076 13.85236,1.508381 18.55124,0.457048 7.01243,-1.569015 12.18351,-4.2602036 17.84373,-9.2864143 1.62146,-1.43987 3.30629,-2.61758876706 3.74405,-2.61722092153 0.43777,3.9849153e-4 2.67131,1.57922212153 4.96341,3.50854132153 4.92648,4.1467226 9.83124,6.7296729 15.57781,8.2035689 3.55284,0.911276 5.11836,1.031408 10.43826,0.801106 9.54684,-0.413305 16.61958,-2.9825531 23.88574,-8.6767713 5.30901,-4.16048618 5.16068,-4.12032971 7.67122,-2.0766106 6.11742,4.9799234 9.98472,7.2619145 15.57491,9.1904069 12.8417,4.430055 26.69544,1.427118 38.08098,-8.254424 1.41661,-1.2046021 2.98911,-2.18978439 3.49445,-2.18926328 0.50533,4.9046e-4 2.71593,1.37764278 4.91245,3.06035218 7.80329,5.977919 14.8027,8.5654061 24.23,8.9571621 5.29489,0.220094 6.9091,0.09472 10.48334,-0.813337 5.00645,-1.27201 10.25533,-3.8083057 13.70972,-6.6245924 4.94365,-4.0303608 6.40011,-5.086843858792 7.01279,-5.086843858792 0.34273,0 2.38696,1.494341758792 4.54288,3.320725558792 4.75038,4.024322 11.55514,7.5546897 16.64954,8.6378407 5.27484,1.121531 14.94557,0.718679 19.71864,-0.821399 5.01678,-1.618735 9.37261,-3.9719655 14.42795,-7.7946162 2.43107,-1.8384 4.59786,-3.342551058792 4.81505,-3.342551058792 0.21815,0 1.69585,1.126097758792 3.28602,2.502391858792 5.24486,4.539459 15.58727,9.7488574 20.7772,10.4652974 l 2.37124,0.327352 0,78.839719 c 0,43.361875 0.14753,85.370475 0.32998,93.352515 l 0.32999,14.51276 -169.17074,2.21242 c -92.90747,1.21505 -187.767492,0.28388 -209.069446,0.21092 z"
     id="path7382"
     inkscape:connector-curvature="0"
     sodipodi:nodetypes="ccsscssssssssssscssssssscsccssssscssscsccscc" />
  <path
     style="opacity:1;fill:#008080;fill-opacity:0"
     d="m 201.74233,94.323033 0,-13.690421 0.84792,0 c 1.66675,0 206.76125,-5.812738 209.67964,-5.942689 l 2.97834,-0.13262 0,13.641363 0,13.641364 -3.79592,0.15277 c -2.08776,0.084 -48.3133,1.40403 -102.72344,2.93333 -54.41013,1.5293 -100.74079,2.84957 -102.95703,2.93394 l -4.02951,0.15338 0,-13.690417 z"
     id="path7817"
     inkscape:connector-curvature="0"
     transform="translate(0,-1.5258792e-5)" />
  <path
     style="opacity:1;fill:#008080;fill-opacity:0"
     d="m 201.74233,93.037435 0,-13.99142 3.32873,-0.146987 c 1.8308,-0.08084 23.87925,-0.723024 48.99656,-1.427069 25.11732,-0.704046 71.54691,-2.015361 103.17688,-2.914034 31.62997,-0.898673 57.62035,-1.633951 57.75638,-1.633951 0.17132,0 0.24735,4.305108 0.24735,14.00512 l 0,14.005116 -0.75919,0.11072 c -0.65813,0.096 -210.39173,6.02377 -212.10433,5.99479 l -0.64238,-0.0109 0,-13.991425 z m 2.74474,13.129615 c -0.22484,-0.0588 -0.59275,-0.0588 -0.81758,0 -0.22484,0.0588 -0.0409,0.10683 0.40879,0.10683 0.44967,0 0.63362,-0.0481 0.40879,-0.10683 z m 8.17583,-0.2336 c -0.22484,-0.0587 -0.59275,-0.0587 -0.81759,0 -0.22483,0.0588 -0.0409,0.10683 0.4088,0.10683 0.44967,0 0.63362,-0.0481 0.40879,-0.10683 z m 8.17583,-0.23359 c -0.22484,-0.0588 -0.59275,-0.0588 -0.81759,0 -0.22483,0.0588 -0.0409,0.10683 0.40879,0.10683 0.44967,0 0.63363,-0.0481 0.4088,-0.10683 z m 8.40942,-0.2336 c -0.22484,-0.0588 -0.59275,-0.0588 -0.81758,0 -0.22484,0.0588 -0.0409,0.10683 0.40879,0.10683 0.44967,0 0.63362,-0.0481 0.40879,-0.10683 z m 8.17583,-0.23359 c -0.22484,-0.0588 -0.59275,-0.0588 -0.81759,0 -0.22483,0.0588 -0.0409,0.10683 0.40879,0.10683 0.44967,0 0.63363,-0.0481 0.4088,-0.10683 z m 8.17582,-0.2336 c -0.22483,-0.0588 -0.59274,-0.0588 -0.81758,0 -0.22483,0.0588 -0.0409,0.10683 0.40879,0.10683 0.44967,0 0.63363,-0.0481 0.40879,-0.10683 z m 8.17583,-0.23359 c -0.22483,-0.0588 -0.59275,-0.0588 -0.81758,0 -0.22484,0.0588 -0.0409,0.10683 0.40879,0.10683 0.44967,0 0.63363,-0.0481 0.40879,-0.10683 z m 8.17583,-0.2336 c -0.22484,-0.0588 -0.59275,-0.0588 -0.81758,0 -0.22484,0.0588 -0.0409,0.10683 0.40879,0.10683 0.44967,0 0.63362,-0.0481 0.40879,-0.10683 z m 8.40942,-0.23359 c -0.22483,-0.0588 -0.59275,-0.0588 -0.81758,0 -0.22484,0.0588 -0.0409,0.10683 0.40879,0.10683 0.44967,0 0.63363,-0.0481 0.40879,-0.10683 z m 8.17583,-0.2336 c -0.22484,-0.0588 -0.59275,-0.0588 -0.81758,0 -0.22484,0.0588 -0.0409,0.10683 0.40879,0.10683 0.44967,0 0.63362,-0.0481 0.40879,-0.10683 z m 8.17583,-0.23359 c -0.22484,-0.0588 -0.59275,-0.0588 -0.81759,0 -0.22483,0.0587 -0.0409,0.10683 0.4088,0.10683 0.44967,0 0.63362,-0.0481 0.40879,-0.10683 z m 8.17582,-0.2336 c -0.22483,-0.0588 -0.59274,-0.0588 -0.81758,0 -0.22483,0.0588 -0.0409,0.10683 0.40879,0.10683 0.44967,0 0.63363,-0.0481 0.40879,-0.10683 z m 8.17583,-0.23359 c -0.22483,-0.0588 -0.59275,-0.0588 -0.81758,0 -0.22484,0.0587 -0.0409,0.10683 0.40879,0.10683 0.44967,0 0.63363,-0.0481 0.40879,-0.10683 z m 8.40943,-0.2336 c -0.22484,-0.0587 -0.59275,-0.0587 -0.81759,0 -0.22483,0.0588 -0.0409,0.10683 0.40879,0.10683 0.44967,0 0.63363,-0.0481 0.4088,-0.10683 z m 8.17582,-0.23359 c -0.22483,-0.0588 -0.59274,-0.0588 -0.81758,0 -0.22484,0.0588 -0.0409,0.10683 0.40879,0.10683 0.44967,0 0.63363,-0.0481 0.40879,-0.10683 z m 8.40943,-0.2336 c -0.22484,-0.0588 -0.59275,-0.0588 -0.81759,0 -0.22483,0.0588 -0.0409,0.10683 0.40879,0.10683 0.44967,0 0.63363,-0.0481 0.4088,-0.10683 z m 8.17582,-0.2336 c -0.22483,-0.0588 -0.59274,-0.0588 -0.81758,0 -0.22483,0.0588 -0.0409,0.10683 0.40879,0.10683 0.44967,0 0.63363,-0.0481 0.40879,-0.10683 z m 8.17583,-0.23359 c -0.22483,-0.0588 -0.59275,-0.0588 -0.81758,0 -0.22484,0.0588 -0.0409,0.10683 0.40879,0.10683 0.44967,0 0.63363,-0.0481 0.40879,-0.10683 z m 8.17583,-0.2336 c -0.22484,-0.0587 -0.59275,-0.0587 -0.81758,0 -0.22484,0.0588 -0.0409,0.10683 0.40879,0.10683 0.44967,0 0.63362,-0.0481 0.40879,-0.10683 z m 8.17583,-0.23359 c -0.22484,-0.0588 -0.59275,-0.0588 -0.81759,0 -0.22483,0.0588 -0.0409,0.10683 0.4088,0.10683 0.44967,0 0.63362,-0.0481 0.40879,-0.10683 z m 8.40942,-0.2336 c -0.22484,-0.0588 -0.59275,-0.0588 -0.81758,0 -0.22484,0.0588 -0.0409,0.10683 0.40879,0.10683 0.44967,0 0.63362,-0.0481 0.40879,-0.10683 z m 8.17583,-0.23359 c -0.22484,-0.0588 -0.59275,-0.0588 -0.81759,0 -0.22483,0.0588 -0.0409,0.10683 0.4088,0.10683 0.44967,0 0.63362,-0.0481 0.40879,-0.10683 z m 8.17582,-0.2336 c -0.22483,-0.0588 -0.59274,-0.0588 -0.81758,0 -0.22483,0.0588 -0.0409,0.10683 0.40879,0.10683 0.44967,0 0.63363,-0.0481 0.40879,-0.10683 z m 8.17583,-0.23359 c -0.22483,-0.0588 -0.59275,-0.0588 -0.81758,0 -0.22484,0.0588 -0.0409,0.10683 0.40879,0.10683 0.44967,0 0.63363,-0.0481 0.40879,-0.10683 z m 8.40943,-0.2336 c -0.22484,-0.0588 -0.59275,-0.0588 -0.81759,0 -0.22483,0.0588 -0.0409,0.10683 0.40879,0.10683 0.44967,0 0.63363,-0.0481 0.4088,-0.10683 z m 8.17582,-0.23359 c -0.22483,-0.0587 -0.59274,-0.0587 -0.81758,0 -0.22484,0.0588 -0.0409,0.10683 0.40879,0.10683 0.44967,0 0.63363,-0.0481 0.40879,-0.10683 z"
     id="path7819"
     inkscape:connector-curvature="0"
     transform="translate(0,-1.5258792e-5)" />
  <path
     style="opacity:1;fill:#00a243;fill-opacity:0;stroke:#00ddff;stroke-width:0.66070664;stroke-opacity:0"
     d="m -3.7784021,105.55184 0,-20.151551 209.4440121,0 209.44401,0 0,20.151551 0,20.15156 -209.44401,0 -209.4440121,0 0,-20.15156 z"
     id="path7865"
     inkscape:connector-curvature="0"
     transform="translate(0,-1.5258792e-5)" />
</svg>
